<svg width="120" height="120" viewBox="0 0 120 120" fill="none" xmlns="http://www.w3.org/2000/svg">
<path fill-rule="evenodd" clip-rule="evenodd" d="M59.999 -7.62939e-06C93.1309 -7.62939e-06 120 26.862 120 60.007C120 93.14 93.1309 120 59.999 120C26.859 120 0 93.14 0 60.007C0 26.862 26.859 -7.62939e-06 59.999 -7.62939e-06Z" fill="#0E004E"/>
<path d="M73.3711 41.5215C74.4159 41.5216 75.2724 41.6745 75.9424 42.0987C77.198 41.7611 78.7076 41.5303 80.46 41.5303C87.1346 41.5304 89.7225 44.4171 89.7227 50.2755V82.1036C89.7227 83.8216 89.8043 85.4613 90.0381 87.2569H82.585C82.4278 86.5566 82.3447 85.692 82.3447 84.7549V83.8223H82.1924C80.7786 86.557 79.1307 87.8154 76.5391 87.8155C72.074 87.8155 71.2881 84.9977 71.2881 79.9229V70.3243C71.2881 65.8774 71.9924 63.5406 75.9121 61.1212C79.7595 58.7017 82.1924 58.0006 82.1924 53.7784V49.4942C82.1924 47.7772 81.7144 46.9933 80.46 46.9932C79.1308 46.9932 78.8125 47.8507 78.8125 49.4942V56.0811H71.2783L71.249 50.3526C71.243 48.7353 70.8565 47.795 69.5254 47.795C68.2708 47.795 67.7969 48.6636 67.7969 50.3868V87.2569H60.2725V42.0694H67.6396V45.5235H67.7969C68.8953 42.8521 70.7833 41.5215 73.3711 41.5215ZM47.7764 41.2872C54.4432 41.2872 57.0361 44.1876 57.0361 50.0694V82.0762C57.0361 83.7981 57.1187 85.4515 57.3564 87.2559H49.9082C49.741 86.5425 49.6641 85.6801 49.6641 84.7471V83.7979H49.5078C48.096 86.5429 46.4461 87.8087 43.8613 87.8087C39.3824 87.8085 38.6055 84.9859 38.6055 79.877V70.2276C38.6055 65.7636 39.3109 63.4043 43.2227 60.9698C47.082 58.5393 49.5077 57.8338 49.5078 53.5967V49.2842C49.5078 47.5603 49.046 46.7735 47.7764 46.7735C46.4464 46.7736 46.1319 47.6349 46.1318 49.2842V58.4551H38.6055V50.0694C38.6055 44.1876 41.5117 41.2872 47.7764 41.2872ZM24.6699 33.4864V62.6954H25.0605L28.9053 42.0684H36.5869L31.9629 62.3067L37.1387 87.252H29.3691L25.0605 63.4844H24.6699V87.252H17.1865V33.4864H24.6699ZM82.1924 63.7979C79.2883 65.6752 78.7442 67.0146 78.7441 69.9932V78.9376C78.7441 80.5821 79.1308 81.4493 80.46 81.4493C81.7144 81.4492 82.1924 80.6687 82.1924 78.9376V63.7979ZM49.5078 63.7969C46.6048 65.6742 46.0577 67.0137 46.0576 69.9922V78.9366C46.0576 80.5811 46.4463 81.4482 47.7764 81.4483C49.0461 81.4483 49.5078 80.6618 49.5078 78.9366V63.7969ZM101.296 42.1114H103.674V48.1915H101.296V74.1006H93.7588V48.1915H91.6191V42.1114H93.7588V33.4346H101.296V42.1114Z" fill="white"/>
<path fill-rule="evenodd" clip-rule="evenodd" d="M97.6369 76.7545C100.68 76.7545 103.157 79.2335 103.157 82.2797C103.157 85.335 100.68 87.8079 97.6369 87.8079C94.5755 87.8079 92.1077 85.335 92.1077 82.2797C92.1077 79.2335 94.5755 76.7545 97.6369 76.7545Z" fill="#AFBC21"/>
</svg>
